<mxfile host="app.diagrams.net" modified="2022-03-21T19:08:59.276Z" agent="5.0 (Windows NT 10.0; Win64; x64) AppleWebKit/537.36 (KHTML, like Gecko) Chrome/99.0.4844.74 Safari/537.36" etag="U5Iw2hMDRfZg-UOwrZuO" version="17.1.3" type="github" pages="2">
  <diagram id="gOP7a4YZkcO-Soyc9g9I" name="Cajero Automatico">
    <mxGraphModel dx="868" dy="482" grid="1" gridSize="10" guides="1" tooltips="1" connect="1" arrows="1" fold="1" page="1" pageScale="1" pageWidth="827" pageHeight="1169" math="0" shadow="0">
      <root>
        <mxCell id="0" />
        <mxCell id="1" parent="0" />
        <mxCell id="sYLvmIWF6ZdvHx_AD3vL-1" value="Usuario" style="swimlane;fontStyle=1;align=center;verticalAlign=top;childLayout=stackLayout;horizontal=1;startSize=26;horizontalStack=0;resizeParent=1;resizeParentMax=0;resizeLast=0;collapsible=1;marginBottom=0;" vertex="1" parent="1">
          <mxGeometry x="40" y="40" width="160" height="148" as="geometry" />
        </mxCell>
        <mxCell id="sYLvmIWF6ZdvHx_AD3vL-2" value="-Clave: numero&#xa;-Tarjeta: numero y texto" style="text;strokeColor=none;fillColor=none;align=left;verticalAlign=top;spacingLeft=4;spacingRight=4;overflow=hidden;rotatable=0;points=[[0,0.5],[1,0.5]];portConstraint=eastwest;" vertex="1" parent="sYLvmIWF6ZdvHx_AD3vL-1">
          <mxGeometry y="26" width="160" height="34" as="geometry" />
        </mxCell>
        <mxCell id="sYLvmIWF6ZdvHx_AD3vL-3" value="" style="line;strokeWidth=1;fillColor=none;align=left;verticalAlign=middle;spacingTop=-1;spacingLeft=3;spacingRight=3;rotatable=0;labelPosition=right;points=[];portConstraint=eastwest;" vertex="1" parent="sYLvmIWF6ZdvHx_AD3vL-1">
          <mxGeometry y="60" width="160" height="8" as="geometry" />
        </mxCell>
        <mxCell id="sYLvmIWF6ZdvHx_AD3vL-4" value="+Retirar efectivo&#xa;+Ingresar efectivo&#xa;+Hacer transferencias&#xa;+Obtener informaciÃ³n" style="text;strokeColor=none;fillColor=none;align=left;verticalAlign=top;spacingLeft=4;spacingRight=4;overflow=hidden;rotatable=0;points=[[0,0.5],[1,0.5]];portConstraint=eastwest;" vertex="1" parent="sYLvmIWF6ZdvHx_AD3vL-1">
          <mxGeometry y="68" width="160" height="80" as="geometry" />
        </mxCell>
        <mxCell id="sYLvmIWF6ZdvHx_AD3vL-18" style="edgeStyle=orthogonalEdgeStyle;rounded=0;orthogonalLoop=1;jettySize=auto;html=1;entryX=0;entryY=0.5;entryDx=0;entryDy=0;endArrow=diamondThin;endFill=0;" edge="1" parent="1" source="sYLvmIWF6ZdvHx_AD3vL-5" target="sYLvmIWF6ZdvHx_AD3vL-14">
          <mxGeometry relative="1" as="geometry" />
        </mxCell>
        <mxCell id="sYLvmIWF6ZdvHx_AD3vL-5" value="Consorcio" style="swimlane;fontStyle=1;align=center;verticalAlign=top;childLayout=stackLayout;horizontal=1;startSize=26;horizontalStack=0;resizeParent=1;resizeParentMax=0;resizeLast=0;collapsible=1;marginBottom=0;" vertex="1" parent="1">
          <mxGeometry x="320" y="50" width="160" height="86" as="geometry" />
        </mxCell>
        <mxCell id="sYLvmIWF6ZdvHx_AD3vL-6" value="-" style="text;strokeColor=none;fillColor=none;align=left;verticalAlign=top;spacingLeft=4;spacingRight=4;overflow=hidden;rotatable=0;points=[[0,0.5],[1,0.5]];portConstraint=eastwest;" vertex="1" parent="sYLvmIWF6ZdvHx_AD3vL-5">
          <mxGeometry y="26" width="160" height="26" as="geometry" />
        </mxCell>
        <mxCell id="sYLvmIWF6ZdvHx_AD3vL-7" value="" style="line;strokeWidth=1;fillColor=none;align=left;verticalAlign=middle;spacingTop=-1;spacingLeft=3;spacingRight=3;rotatable=0;labelPosition=right;points=[];portConstraint=eastwest;" vertex="1" parent="sYLvmIWF6ZdvHx_AD3vL-5">
          <mxGeometry y="52" width="160" height="8" as="geometry" />
        </mxCell>
        <mxCell id="sYLvmIWF6ZdvHx_AD3vL-8" value="+" style="text;strokeColor=none;fillColor=none;align=left;verticalAlign=top;spacingLeft=4;spacingRight=4;overflow=hidden;rotatable=0;points=[[0,0.5],[1,0.5]];portConstraint=eastwest;" vertex="1" parent="sYLvmIWF6ZdvHx_AD3vL-5">
          <mxGeometry y="60" width="160" height="26" as="geometry" />
        </mxCell>
        <mxCell id="sYLvmIWF6ZdvHx_AD3vL-10" value="Usa" style="text;html=1;strokeColor=none;fillColor=none;align=center;verticalAlign=middle;whiteSpace=wrap;rounded=0;" vertex="1" parent="1">
          <mxGeometry x="230" y="50" width="60" height="30" as="geometry" />
        </mxCell>
        <mxCell id="sYLvmIWF6ZdvHx_AD3vL-11" value="N" style="text;html=1;strokeColor=none;fillColor=none;align=center;verticalAlign=middle;whiteSpace=wrap;rounded=0;" vertex="1" parent="1">
          <mxGeometry x="200" y="50" width="20" height="30" as="geometry" />
        </mxCell>
        <mxCell id="sYLvmIWF6ZdvHx_AD3vL-12" value="1" style="text;html=1;strokeColor=none;fillColor=none;align=center;verticalAlign=middle;whiteSpace=wrap;rounded=0;" vertex="1" parent="1">
          <mxGeometry x="300" y="50" width="20" height="30" as="geometry" />
        </mxCell>
        <mxCell id="sYLvmIWF6ZdvHx_AD3vL-13" style="edgeStyle=orthogonalEdgeStyle;rounded=0;orthogonalLoop=1;jettySize=auto;html=1;entryX=-0.006;entryY=0.269;entryDx=0;entryDy=0;entryPerimeter=0;" edge="1" parent="1" source="sYLvmIWF6ZdvHx_AD3vL-2" target="sYLvmIWF6ZdvHx_AD3vL-6">
          <mxGeometry relative="1" as="geometry" />
        </mxCell>
        <mxCell id="sYLvmIWF6ZdvHx_AD3vL-14" value="Banco" style="swimlane;fontStyle=1;align=center;verticalAlign=top;childLayout=stackLayout;horizontal=1;startSize=26;horizontalStack=0;resizeParent=1;resizeParentMax=0;resizeLast=0;collapsible=1;marginBottom=0;" vertex="1" parent="1">
          <mxGeometry x="560" y="50" width="160" height="86" as="geometry" />
        </mxCell>
        <mxCell id="sYLvmIWF6ZdvHx_AD3vL-15" value="-" style="text;strokeColor=none;fillColor=none;align=left;verticalAlign=top;spacingLeft=4;spacingRight=4;overflow=hidden;rotatable=0;points=[[0,0.5],[1,0.5]];portConstraint=eastwest;" vertex="1" parent="sYLvmIWF6ZdvHx_AD3vL-14">
          <mxGeometry y="26" width="160" height="26" as="geometry" />
        </mxCell>
        <mxCell id="sYLvmIWF6ZdvHx_AD3vL-16" value="" style="line;strokeWidth=1;fillColor=none;align=left;verticalAlign=middle;spacingTop=-1;spacingLeft=3;spacingRight=3;rotatable=0;labelPosition=right;points=[];portConstraint=eastwest;" vertex="1" parent="sYLvmIWF6ZdvHx_AD3vL-14">
          <mxGeometry y="52" width="160" height="8" as="geometry" />
        </mxCell>
        <mxCell id="sYLvmIWF6ZdvHx_AD3vL-17" value="+" style="text;strokeColor=none;fillColor=none;align=left;verticalAlign=top;spacingLeft=4;spacingRight=4;overflow=hidden;rotatable=0;points=[[0,0.5],[1,0.5]];portConstraint=eastwest;" vertex="1" parent="sYLvmIWF6ZdvHx_AD3vL-14">
          <mxGeometry y="60" width="160" height="26" as="geometry" />
        </mxCell>
      </root>
    </mxGraphModel>
  </diagram>
  <diagram id="d9LJZoi7f2lcKM6a8jcw" name="Video Club">
    <mxGraphModel dx="868" dy="482" grid="1" gridSize="10" guides="1" tooltips="1" connect="1" arrows="1" fold="1" page="1" pageScale="1" pageWidth="827" pageHeight="1169" math="0" shadow="0">
      <root>
        <mxCell id="C7R_7DYls7evOrGCJvDk-0" />
        <mxCell id="C7R_7DYls7evOrGCJvDk-1" parent="C7R_7DYls7evOrGCJvDk-0" />
      </root>
    </mxGraphModel>
  </diagram>
</mxfile>
